<svg viewBox="0 0 400 300" xmlns="http://www.w3.org/2000/svg" role="img" aria-labelledby="danzaTitle">
  <title id="danzaTitle">Ilustracion de danza</title>
  <rect width="400" height="300" fill="#1d1916"/>
  <g opacity="0.15" stroke="#F2EDE4" stroke-width="1">
    <line x1="0" y1="70" x2="400" y2="70"/>
    <line x1="0" y1="140" x2="400" y2="140"/>
    <line x1="0" y1="210" x2="400" y2="210"/>
  </g>
  <g fill="none" stroke="#C84B31" stroke-width="3" stroke-linecap="round" stroke-linejoin="round">
    <circle cx="200" cy="70" r="14" fill="#F2EDE4" stroke="none"/>
    <path d="M200 84 L200 165"/>
    <path d="M200 110 C 170 130, 145 140, 135 175 C 130 192, 145 205, 160 195"/>
    <path d="M200 110 C 230 130, 258 132, 270 165 C 278 182, 262 198, 248 188"/>
    <path d="M200 165 L160 245"/>
    <path d="M200 165 L240 248"/>
  </g>
  <g fill="none" stroke="#3E7C6F" stroke-width="2.5" stroke-linecap="round" opacity="0.8">
    <path d="M125 250 C 108 262, 104 272, 112 280"/>
    <path d="M275 252 C 292 264, 296 274, 288 282"/>
  </g>
  <text x="24" y="278" font-family="IBM Plex Mono, monospace" font-size="11" fill="#5a4e42">// performance.dance — sync: ok</text>
</svg>
